<svg width="18" height="32" viewBox="0 0 18 32" fill="none" xmlns="http://www.w3.org/2000/svg">
<g clip-path="url(#clip0_3544_2443)">
<path d="M11.7551 10.6385H17.6327L16.898 15.8736H11.7551V31.0625H3.85714V15.8736H0V10.6385H3.85714V7.46803C3.85714 5.25605 4.53061 3.57248 5.87755 2.41734C7.22449 1.26219 9.39796 0.684618 12.398 0.684618H17.6327V5.91964H14.3265C13.7143 5.91964 13.2245 5.95651 12.8571 6.03024C12.4898 6.10397 12.2296 6.25144 12.0765 6.47264C11.9235 6.69384 11.8316 6.91504 11.801 7.13623C11.7704 7.35743 11.7551 7.66465 11.7551 8.05789V10.6385Z" fill="#1D1D1B"/>
</g>
<defs>
<clipPath id="clip0_3544_2443">
<rect width="18" height="32" fill="white" transform="matrix(1 0 0 -1 0 32)"/>
</clipPath>
</defs>
</svg>
