<svg width="32" height="32" viewBox="0 0 32 32" fill="none" xmlns="http://www.w3.org/2000/svg">
<g clip-path="url(#clip0_3544_1697)">
<path d="M27.5949 26.2748V13.5064H24.9939C25.2566 14.3471 25.388 15.2141 25.388 16.1074C25.388 17.7888 24.9677 19.3257 24.1269 20.7182C23.2862 22.1106 22.1433 23.2141 20.6984 24.0285C19.2534 24.843 17.6639 25.2502 15.9299 25.2502C13.3552 25.2502 11.1483 24.3569 9.30919 22.5704C7.47011 20.7839 6.55057 18.6295 6.55057 16.1074C6.55057 15.2141 6.68193 14.3471 6.94466 13.5064H4.18604V26.2748C4.18604 26.6427 4.30426 26.9448 4.54072 27.1812C4.77717 27.4177 5.05303 27.5359 5.3683 27.5359H26.4126C26.7805 27.5359 27.0695 27.4177 27.2796 27.1812C27.4898 26.9448 27.5949 26.6427 27.5949 26.2748ZM20.2649 19.9694C20.2649 19.9694 20.567 19.6804 21.1713 19.1024C21.7755 18.5244 22.0777 17.421 22.0777 15.7921C22.0777 14.1632 21.4734 12.7707 20.2649 11.6147C19.0563 10.4587 17.6113 9.88075 15.9299 9.88075C14.2484 9.88075 12.8166 10.4587 11.6343 11.6147C10.452 12.7707 9.86092 14.1632 9.86092 15.7921C9.86092 17.421 10.452 18.8134 11.6343 19.9694C12.8166 21.1254 14.2484 21.7034 15.9299 21.7034C17.6113 21.7034 19.0563 21.1254 20.2649 19.9694ZM27.5949 8.69849V5.46696C27.5949 5.09914 27.4635 4.78387 27.2008 4.52115C26.9381 4.25842 26.6228 4.12706 26.255 4.12706H22.8658C22.4455 4.12706 22.1039 4.25842 21.8412 4.52115C21.5785 4.78387 21.4471 5.09914 21.4471 5.46696V8.69849C21.4471 9.0663 21.5785 9.38157 21.8412 9.6443C22.1039 9.90703 22.4455 10.0384 22.8658 10.0384H26.255C26.6228 10.0384 26.9381 9.90703 27.2008 9.6443C27.4635 9.38157 27.5949 9.0663 27.5949 8.69849ZM31.0629 4.59997V27.1418C31.0629 28.1927 30.6819 29.0991 29.92 29.861C29.1581 30.623 28.2517 31.0039 27.2008 31.0039H4.65894C3.60804 31.0039 2.70164 30.623 1.93973 29.861C1.17783 29.0991 0.796875 28.1927 0.796875 27.1418V4.59997C0.796875 3.54906 1.17783 2.64266 1.93973 1.88075C2.70164 1.11885 3.60804 0.737896 4.65894 0.737896H27.2008C28.2517 0.737896 29.1581 1.11885 29.92 1.88075C30.6819 2.64266 31.0629 3.54906 31.0629 4.59997Z" fill="#1D1D1B"/>
</g>
<defs>
<clipPath id="clip0_3544_1697">
<rect width="32" height="32" fill="white" transform="matrix(1 0 0 -1 0 32)"/>
</clipPath>
</defs>
</svg>
