<svg width="31" height="32" viewBox="0 0 31 32" fill="none" xmlns="http://www.w3.org/2000/svg">
<g clip-path="url(#clip0_3544_1701)">
<path d="M4.85332 26.1172H9.44005V12.4029H4.85332V26.1172ZM9.75638 8.14676C9.70366 7.51622 9.45323 6.9645 9.0051 6.49159C8.55697 6.01868 7.95068 5.78223 7.18622 5.78223C6.42177 5.78223 5.8023 6.01868 5.32781 6.49159C4.85332 6.9645 4.61607 7.51622 4.61607 8.14676C4.61607 8.82985 4.85332 9.39471 5.32781 9.84134C5.8023 10.288 6.40859 10.5113 7.14668 10.5113C7.9375 10.5113 8.57015 10.288 9.04464 9.84134C9.51913 9.39471 9.75638 8.82985 9.75638 8.14676ZM21.3023 26.1172H25.889V18.2354C25.889 16.2387 25.4014 14.7149 24.426 13.664C23.4507 12.6131 22.1722 12.0877 20.5906 12.0877C18.798 12.0877 17.4273 12.8496 16.4783 14.3734V12.4029H11.9707C12.0234 13.2436 12.0234 17.8151 11.9707 26.1172H16.4783V18.3931C16.4783 17.9202 16.531 17.5523 16.6365 17.2896C16.8474 16.8693 17.1505 16.5014 17.5459 16.1862C17.9413 15.8709 18.429 15.7133 19.0089 15.7133C20.5378 15.7133 21.3023 16.7379 21.3023 18.7872V26.1172ZM30.5548 6.41277V25.329C30.5548 26.9054 30.0013 28.2453 28.8941 29.3487C27.787 30.4522 26.4426 31.0039 24.861 31.0039H5.88138C4.29975 31.0039 2.95536 30.4522 1.84821 29.3487C0.741071 28.2453 0.1875 26.9054 0.1875 25.329V6.41277C0.1875 4.83642 0.741071 3.49652 1.84821 2.39307C2.95536 1.28962 4.29975 0.737896 5.88138 0.737896H24.861C26.4426 0.737896 27.787 1.28962 28.8941 2.39307C30.0013 3.49652 30.5548 4.83642 30.5548 6.41277Z" fill="#1D1D1B"/>
</g>
<defs>
<clipPath id="clip0_3544_1701">
<rect width="31" height="32" fill="white" transform="matrix(1 0 0 -1 0 32)"/>
</clipPath>
</defs>
</svg>
