<svg width="32" height="23" viewBox="0 0 32 23" fill="none" xmlns="http://www.w3.org/2000/svg">
<g clip-path="url(#clip0_3544_1699)">
<path d="M21.7666 12.8224C22.136 12.5942 22.3208 12.2747 22.3208 11.864C22.3208 11.4533 22.136 11.1339 21.7666 10.9057L12.9008 5.4295C12.5776 5.24696 12.2082 5.24696 11.7926 5.4295C11.4232 5.61204 11.2385 5.93149 11.2385 6.38784V17.3402C11.2385 17.7966 11.4232 18.116 11.7926 18.2985C11.9773 18.3898 12.162 18.4355 12.3467 18.4355C12.5776 18.4355 12.7623 18.3898 12.9008 18.2985L21.7666 12.8224ZM31.1866 9.29706C31.1866 9.29706 31.1866 9.45108 31.1866 9.75912C31.1866 10.0672 31.1866 10.7688 31.1866 11.864C31.1866 12.9593 31.1866 13.8149 31.1866 14.431C31.1866 15.0471 31.1404 15.8229 31.048 16.7584C30.9557 17.6939 30.8171 18.5267 30.6324 19.2569C30.4477 20.1239 30.0552 20.8427 29.455 21.4131C28.8547 21.9836 28.1389 22.3144 27.3078 22.4057C24.7219 22.6795 20.8431 22.8164 15.6714 22.8164C10.4997 22.8164 6.6209 22.6795 4.03504 22.4057C3.20387 22.3144 2.48814 21.9836 1.88785 21.4131C1.28756 20.8427 0.895067 20.1239 0.710363 19.2569C0.525658 18.5267 0.38713 17.6939 0.294778 16.7584C0.202426 15.8229 0.15625 15.0471 0.15625 14.431C0.15625 13.8149 0.15625 12.9593 0.15625 11.864C0.15625 10.7688 0.15625 9.91313 0.15625 9.29706C0.15625 8.68099 0.202426 7.9052 0.294778 6.96968C0.38713 6.03417 0.525658 5.20133 0.710363 4.47117C0.895067 3.60411 1.28756 2.88536 1.88785 2.31492C2.48814 1.74448 3.20387 1.41363 4.03504 1.32236C6.6209 1.04855 10.4997 0.911648 15.6714 0.911648C20.8431 0.911648 24.7219 1.04855 27.3078 1.32236C28.1389 1.41363 28.8547 1.74448 29.455 2.31492C30.0552 2.88536 30.4477 3.60411 30.6324 4.47117C30.8171 5.20133 30.9557 6.03417 31.048 6.96968C31.1404 7.9052 31.1866 8.68099 31.1866 9.29706Z" fill="#1D1D1B"/>
</g>
<defs>
<clipPath id="clip0_3544_1699">
<rect width="32" height="23" fill="white" transform="matrix(1 0 0 -1 0 23)"/>
</clipPath>
</defs>
</svg>
